<?xml version="1.0" encoding="UTF-8"?>
<svg id="Layer_1"
  xmlns="http://www.w3.org/2000/svg" version="1.1" viewBox="0 0 1024 1024">
  <path fill="currentColor" d="M199.9,547.8c7.4,28.2,29.7,138.1-32.2,265.4-1.4,2.9.8,6.3,4.1,6.1,46.9-2.7,313.2-10.5,631.7,123.9,2.2.9,4.7,0,5.6-2.2,9.1-21.4,49.8-128.4,4.3-243.6-.5-1.3-1.6-2.2-2.9-2.6l-605.4-152.2c-3.1-.8-6,2.1-5.2,5.2h0Z"/>
  <path fill="currentColor" d="M269.2,297.2c11.5,25.9,39.5,110.1-24.3,209.3-1.8,2.7,0,6.3,3.3,6.6,47.6,3.4,319.8,27.1,562.9,137.3,2.4,1.1,5.2-.2,5.9-2.8,6.2-23.8,29.6-130.5-21.9-217.6-.6-1-1.5-1.7-2.6-2l-518.2-136.6c-3.5-.9-6.4,2.6-5,5.8h0Z"/>
  <path fill="currentColor" d="M351.1,86.8c9.1,23.1,28.6,93.2-30.5,170.9-2,2.7-.3,6.5,3,6.8,45,3.7,273.3,27,462,127.3,2.3,1.2,5.1.1,6-2.3,7.7-21.1,35.8-111.6-11.2-193.9-.6-1-1.5-1.7-2.6-2l-421.6-112.5c-3.4-.9-6.4,2.4-5.1,5.7h0Z"/>
</svg>